{"title":"Dexter S08E02 Every Silver Lining 720p WEB-DL AAC ReEnc  H.264-B","uid":9055627,"size":672210765,"categoryP":"video","categoryS":"hd___tv_shows","magnet":"?xt=urn:btih:9ac96e780682f8cc46df428bdc80912f5456d588&amp;dn=Dexter+S08E02+Every+Silver+Lining+720p+WEB-DL+AAC+ReEnc++H.264-B&amp;tr=udp%3A%2F%2Ftracker.openbittorrent.com%3A80&amp;tr=udp%3A%2F%2Fopen.demonii.com%3A1337&amp;tr=udp%3A%2F%2Ftracker.coppersurfer.tk%3A6969&amp;tr=udp%3A%2F%2Fexodus.desync.com%3A6969","seeders":1,"leechers":0,"uploader":"spiderot","files":2,"time":1381948391,"description":"Dexter S08E02 Every Silver Lining 720p WEB-DL -=SPIDAROT=-\n\n\nLength..............: 57mn 12s\nVideo...............: H264 @ 1 436 Kbps (1274x720)\nFPS.................: 15.000 FPS\nAudio...............: AAC\n\nimage\nimage\nimage\nimage\nimage\n\nFormat : MPEG-4\nFormat profile : Base Media / Version 2\nCodec ID : mp42\nFile size : 641 MiB\nDuration : 57mn 12s\nOverall bit rate mode : Variable\nOverall bit rate : 1 567 Kbps\nEncoded date : UTC 2013-10-15 20:05:42\nTagged date : UTC 2013-10-16 14:45:03\nWriting application : HandBrake 0.9.9 2013052900\n\nVideo\nID : 1\nFormat : AVC\nFormat/Info : Advanced Video Codec\nFormat profile : &lt;a class=&quot;__cf_email__&quot; href=&quot;/cdn-cgi/l/email-protection&quot; data-cfemail=&quot;eca18d8582aca0d8c2dc&quot;&gt;[email&amp;#160;protected]&lt;/a&gt;&lt;script cf-hash='f9e31' type=&quot;text/javascript&quot;&gt;\n/* &lt;![CDATA[ */!function(){try{var t=&quot;currentScript&quot;in document?document.currentScript:function(){for(var t=document.getElementsByTagName(&quot;script&quot;),e=t.length;e--;)if(t[e].getAttribute(&quot;cf-hash&quot;))return t[e]}();if(t&amp;&amp;t.previousSibling){var e,r,n,i,c=t.previousSibling,a=c.getAttribute(&quot;data-cfemail&quot;);if(a){for(e=&quot;&quot;,r=parseInt(a.substr(0,2),16),n=2;a.length-n;n+=2)i=parseInt(a.substr(n,2),16)^r,e+=String.fromCharCode(i);e=document.createTextNode(e),c.parentNode.replaceChild(e,c)}}}catch(u){}}();/* ]]&gt; */&lt;/script&gt;\nFormat settings, CABAC : Yes\nFormat settings, ReFrames : 9 frames\nCodec ID : avc1\nCodec ID/Info : Advanced Video Coding\nDuration : 57mn 12s\nBit rate mode : Variable\nBit rate : 1 436 Kbps\nWidth : 1 274 pixels\nHeight : 720 pixels\nDisplay aspect ratio : 16:9\nOriginal display aspect ratio : 16:9\nFrame rate mode : Constant\nFrame rate : 15.000 fps\nColor space : YUV\nChroma subsampling : 4:2:0\nBit depth : 8 bits\nScan type : Progressive\nBits/(Pixel*Frame) : 0.104\nStream size : 587 MiB (92%)\nWriting library : x264 core 130 r2273 b3065e6\n\nEncoded date : UTC 2013-10-15 20:05:42\nTagged date : UTC 2013-10-16 14:45:03\nColor primaries : BT.709\nTransfer characteristics : BT.709\nMatrix coefficients : BT.709\n\nAudio\nID : 2\nFormat : AAC\nFormat/Info : Advanced Audio Codec\nFormat profile : LC\nCodec ID : 40\nDuration : 57mn 12s\nBit rate mode : Variable\nBit rate : 128 Kbps\nMaximum bit rate : 298 Kbps\nChannel(s) : 2 channels\nChannel positions : Front: L R\nSampling rate : 48.0 KHz\nCompression mode : Lossy\nDelay relative to video : 133ms\nStream size : 52.4 MiB (8%)\nLanguage : English\nEncoded date : UTC 2013-10-15 20:05:42\nTagged date : UTC 2013-10-16 14:44:53\n\n\n\n\nimage\n\n\nPLEASE SEED AND COMMENT","torrent":{"xt":"urn:btih:9ac96e780682f8cc46df428bdc80912f5456d588","amp;dn":"Dexter+S08E02+Every+Silver+Lining+720p+WEB-DL+AAC+ReEnc++H.264-B","amp;tr":["udp%3A%2F%2Ftracker.openbittorrent.com%3A80","udp%3A%2F%2Fopen.demonii.com%3A1337","udp%3A%2F%2Ftracker.coppersurfer.tk%3A6969","udp%3A%2F%2Fexodus.desync.com%3A6969"],"infoHash":"9ac96e780682f8cc46df428bdc80912f5456d588","infoHashBuffer":{"type":"Buffer","data":[154,201,110,120,6,130,248,204,70,223,66,139,220,128,145,47,84,86,213,136]},"announce":[],"urlList":[]}}